<svg xmlns="http://www.w3.org/2000/svg" xmlns:xlink="http://www.w3.org/1999/xlink" width="120" zoomAndPan="magnify" viewBox="0 0 90 30.000001" height="40" preserveAspectRatio="xMidYMid meet" version="1.2"><defs/><g id="75b795e3fe"><g style="fill:#000000;fill-opacity:1;"><g transform="translate(1.780737, 19.314901)"><path style="stroke:none" d="M 1.109375 0.40625 L 1.109375 -13.265625 C 1.109375 -13.523438 1.238281 -13.65625 1.5 -13.65625 L 3.609375 -13.65625 C 3.816406 -13.65625 3.976562 -13.570312 4.09375 -13.40625 L 10.140625 -4.421875 L 10.234375 -4.484375 C 10.117188 -4.722656 10.015625 -4.957031 9.921875 -5.1875 C 9.828125 -5.425781 9.753906 -5.695312 9.703125 -6 C 9.648438 -6.300781 9.625 -6.679688 9.625 -7.140625 L 9.625 -9.265625 C 9.625 -10.304688 9.753906 -11.15625 10.015625 -11.8125 C 10.273438 -12.46875 10.628906 -12.972656 11.078125 -13.328125 C 11.535156 -13.679688 12.054688 -13.925781 12.640625 -14.0625 L 12.640625 -0.40625 C 12.640625 -0.132812 12.503906 0 12.234375 0 L 10.125 0 C 9.914062 0 9.753906 -0.0859375 9.640625 -0.265625 L 3.59375 -9.25 L 3.515625 -9.1875 C 3.628906 -8.945312 3.726562 -8.707031 3.8125 -8.46875 C 3.90625 -8.238281 3.976562 -7.96875 4.03125 -7.65625 C 4.09375 -7.351562 4.125 -6.976562 4.125 -6.53125 L 4.125 -4.40625 C 4.125 -3.363281 3.992188 -2.507812 3.734375 -1.84375 C 3.472656 -1.1875 3.113281 -0.679688 2.65625 -0.328125 C 2.207031 0.0234375 1.691406 0.269531 1.109375 0.40625 Z M 1.109375 0.40625 "/></g></g><g style="fill:#000000;fill-opacity:1;"><g transform="translate(15.53512, 19.314901)"><path style="stroke:none" d="M 5.703125 -9.1875 C 6.378906 -9.1875 7.007812 -9.082031 7.59375 -8.875 C 8.1875 -8.675781 8.707031 -8.382812 9.15625 -8 C 9.613281 -7.613281 9.96875 -7.140625 10.21875 -6.578125 C 10.476562 -6.015625 10.609375 -5.363281 10.609375 -4.625 L 10.609375 -4.265625 C 10.609375 -3.992188 10.472656 -3.859375 10.203125 -3.859375 L 3.734375 -3.859375 C 3.773438 -3.242188 3.960938 -2.75 4.296875 -2.375 C 4.628906 -2.007812 5.078125 -1.828125 5.640625 -1.828125 C 6.085938 -1.828125 6.453125 -1.914062 6.734375 -2.09375 C 7.023438 -2.28125 7.234375 -2.503906 7.359375 -2.765625 C 7.410156 -2.878906 7.46875 -2.960938 7.53125 -3.015625 C 7.601562 -3.078125 7.691406 -3.109375 7.796875 -3.109375 L 10.03125 -3.109375 C 10.164062 -3.109375 10.269531 -3.066406 10.34375 -2.984375 C 10.414062 -2.898438 10.425781 -2.789062 10.375 -2.65625 C 10.132812 -1.976562 9.785156 -1.421875 9.328125 -0.984375 C 8.878906 -0.546875 8.347656 -0.21875 7.734375 0 C 7.117188 0.21875 6.441406 0.328125 5.703125 0.328125 C 4.941406 0.328125 4.242188 0.21875 3.609375 0 C 2.972656 -0.21875 2.425781 -0.53125 1.96875 -0.9375 C 1.519531 -1.351562 1.171875 -1.851562 0.921875 -2.4375 C 0.671875 -3.03125 0.546875 -3.691406 0.546875 -4.421875 C 0.546875 -5.140625 0.671875 -5.789062 0.921875 -6.375 C 1.179688 -6.96875 1.539062 -7.472656 2 -7.890625 C 2.46875 -8.304688 3.015625 -8.625 3.640625 -8.84375 C 4.273438 -9.070312 4.960938 -9.1875 5.703125 -9.1875 Z M 3.78125 -5.484375 L 7.421875 -5.484375 C 7.390625 -5.960938 7.210938 -6.359375 6.890625 -6.671875 C 6.566406 -6.984375 6.140625 -7.140625 5.609375 -7.140625 C 5.046875 -7.140625 4.617188 -6.984375 4.328125 -6.671875 C 4.046875 -6.359375 3.863281 -5.960938 3.78125 -5.484375 Z M 3.78125 -5.484375 "/></g></g><g style="fill:#000000;fill-opacity:1;"><g transform="translate(26.116507, 19.314901)"><path style="stroke:none" d="M 10.75 -9.0625 L 7.28125 -4.515625 L 10.53125 -0.484375 C 10.632812 -0.359375 10.664062 -0.242188 10.625 -0.140625 C 10.582031 -0.046875 10.476562 0 10.3125 0 L 7.640625 0 C 7.429688 0 7.269531 -0.0859375 7.15625 -0.265625 L 5.609375 -2.4375 L 5.453125 -2.171875 C 5.046875 -1.554688 4.609375 -1.078125 4.140625 -0.734375 C 3.679688 -0.390625 3.164062 -0.144531 2.59375 0 C 2.019531 0.132812 1.367188 0.203125 0.640625 0.203125 L 0.078125 0.203125 L 3.671875 -4.203125 L 0.515625 -8.375 C 0.421875 -8.519531 0.398438 -8.632812 0.453125 -8.71875 C 0.515625 -8.8125 0.625 -8.859375 0.78125 -8.859375 L 3.25 -8.859375 C 3.351562 -8.859375 3.441406 -8.835938 3.515625 -8.796875 C 3.597656 -8.765625 3.671875 -8.695312 3.734375 -8.59375 L 5.359375 -6.203125 L 5.625 -6.609375 C 6.03125 -7.210938 6.460938 -7.691406 6.921875 -8.046875 C 7.378906 -8.410156 7.890625 -8.671875 8.453125 -8.828125 C 9.015625 -8.984375 9.660156 -9.0625 10.390625 -9.0625 Z M 10.75 -9.0625 "/></g></g><g style="fill:#000000;fill-opacity:1;"><g transform="translate(37.079865, 19.314901)"><path style="stroke:none" d="M 4.9375 -8.859375 L 6.25 -8.859375 C 6.519531 -8.859375 6.65625 -8.722656 6.65625 -8.453125 L 6.65625 -6.9375 C 6.65625 -6.664062 6.519531 -6.53125 6.25 -6.53125 L 4.9375 -6.53125 L 4.9375 -0.40625 C 4.9375 -0.132812 4.804688 0 4.546875 0 L 2.328125 0 C 2.054688 0 1.921875 -0.132812 1.921875 -0.40625 L 1.921875 -6.53125 L 0.640625 -6.53125 C 0.367188 -6.53125 0.234375 -6.664062 0.234375 -6.9375 L 0.234375 -8.453125 C 0.234375 -8.722656 0.367188 -8.859375 0.640625 -8.859375 L 1.921875 -8.859375 C 1.921875 -9.898438 2.179688 -10.742188 2.703125 -11.390625 C 3.222656 -12.046875 3.96875 -12.472656 4.9375 -12.671875 Z M 4.9375 -8.859375 "/></g></g><g style="fill:#000000;fill-opacity:1;"><g transform="translate(46.077352, 19.675126)"><path style="stroke:none" d="M 7.53125 0.15625 C 6.550781 0.15625 5.632812 -0.00390625 4.78125 -0.328125 C 3.9375 -0.660156 3.191406 -1.132812 2.546875 -1.75 C 1.910156 -2.375 1.410156 -3.117188 1.046875 -3.984375 C 0.679688 -4.847656 0.5 -5.8125 0.5 -6.875 C 0.5 -7.75 0.617188 -8.546875 0.859375 -9.265625 C 1.109375 -9.992188 1.445312 -10.644531 1.875 -11.21875 C 2.3125 -11.789062 2.820312 -12.273438 3.40625 -12.671875 C 4 -13.078125 4.644531 -13.382812 5.34375 -13.59375 C 6.050781 -13.800781 6.785156 -13.90625 7.546875 -13.90625 C 8.296875 -13.90625 9.007812 -13.804688 9.6875 -13.609375 C 10.363281 -13.410156 10.976562 -13.117188 11.53125 -12.734375 C 12.082031 -12.359375 12.554688 -11.898438 12.953125 -11.359375 C 13.359375 -10.828125 13.65625 -10.222656 13.84375 -9.546875 C 13.882812 -9.398438 13.867188 -9.285156 13.796875 -9.203125 C 13.722656 -9.128906 13.617188 -9.09375 13.484375 -9.09375 L 11.109375 -9.09375 C 10.898438 -9.09375 10.742188 -9.203125 10.640625 -9.421875 C 10.484375 -9.796875 10.25 -10.113281 9.9375 -10.375 C 9.625 -10.632812 9.257812 -10.832031 8.84375 -10.96875 C 8.4375 -11.101562 8 -11.171875 7.53125 -11.171875 C 6.976562 -11.171875 6.457031 -11.070312 5.96875 -10.875 C 5.488281 -10.6875 5.0625 -10.40625 4.6875 -10.03125 C 4.320312 -9.664062 4.035156 -9.21875 3.828125 -8.6875 C 3.617188 -8.164062 3.515625 -7.5625 3.515625 -6.875 C 3.515625 -6.195312 3.617188 -5.585938 3.828125 -5.046875 C 4.035156 -4.515625 4.320312 -4.066406 4.6875 -3.703125 C 5.0625 -3.335938 5.488281 -3.054688 5.96875 -2.859375 C 6.457031 -2.671875 6.976562 -2.578125 7.53125 -2.578125 C 8 -2.578125 8.441406 -2.644531 8.859375 -2.78125 C 9.273438 -2.914062 9.640625 -3.113281 9.953125 -3.375 C 10.265625 -3.632812 10.492188 -3.957031 10.640625 -4.34375 C 10.742188 -4.5625 10.898438 -4.671875 11.109375 -4.671875 L 13.5 -4.671875 C 13.644531 -4.671875 13.75 -4.628906 13.8125 -4.546875 C 13.882812 -4.472656 13.898438 -4.363281 13.859375 -4.21875 C 13.671875 -3.53125 13.375 -2.914062 12.96875 -2.375 C 12.570312 -1.832031 12.085938 -1.375 11.515625 -1 C 10.953125 -0.625 10.332031 -0.335938 9.65625 -0.140625 C 8.976562 0.0546875 8.269531 0.15625 7.53125 0.15625 Z M 7.53125 0.15625 "/></g></g><g style="fill:#000000;fill-opacity:1;"><g transform="translate(60.42523, 19.675126)"><path style="stroke:none" d="M 8.5625 -7.4375 C 9.050781 -8.40625 9.882812 -8.953125 11.0625 -9.078125 L 11.0625 0.203125 C 9.882812 0.078125 9.050781 -0.472656 8.5625 -1.453125 C 8.175781 -0.898438 7.675781 -0.460938 7.0625 -0.140625 C 6.445312 0.171875 5.765625 0.328125 5.015625 0.328125 C 4.359375 0.328125 3.757812 0.210938 3.21875 -0.015625 C 2.675781 -0.253906 2.207031 -0.582031 1.8125 -1 C 1.425781 -1.425781 1.125 -1.929688 0.90625 -2.515625 C 0.6875 -3.097656 0.578125 -3.742188 0.578125 -4.453125 C 0.578125 -5.148438 0.6875 -5.785156 0.90625 -6.359375 C 1.125 -6.941406 1.425781 -7.441406 1.8125 -7.859375 C 2.207031 -8.285156 2.675781 -8.613281 3.21875 -8.84375 C 3.757812 -9.082031 4.359375 -9.203125 5.015625 -9.203125 C 5.765625 -9.203125 6.445312 -9.046875 7.0625 -8.734375 C 7.675781 -8.421875 8.175781 -7.988281 8.5625 -7.4375 Z M 5.9375 -2.09375 C 6.34375 -2.09375 6.703125 -2.191406 7.015625 -2.390625 C 7.335938 -2.585938 7.585938 -2.863281 7.765625 -3.21875 C 7.953125 -3.570312 8.046875 -3.972656 8.046875 -4.421875 C 8.046875 -4.878906 7.953125 -5.285156 7.765625 -5.640625 C 7.585938 -5.992188 7.335938 -6.269531 7.015625 -6.46875 C 6.703125 -6.664062 6.34375 -6.765625 5.9375 -6.765625 C 5.53125 -6.765625 5.164062 -6.664062 4.84375 -6.46875 C 4.519531 -6.269531 4.269531 -5.992188 4.09375 -5.640625 C 3.914062 -5.285156 3.828125 -4.878906 3.828125 -4.421875 C 3.828125 -3.972656 3.914062 -3.570312 4.09375 -3.21875 C 4.269531 -2.863281 4.519531 -2.585938 4.84375 -2.390625 C 5.164062 -2.191406 5.53125 -2.09375 5.9375 -2.09375 Z M 5.9375 -2.09375 "/></g></g><g style="fill:#000000;fill-opacity:1;"><g transform="translate(72.47907, 19.675126)"><path style="stroke:none" d="M 6.875 -9 C 6.988281 -8.96875 7.070312 -8.910156 7.125 -8.828125 C 7.175781 -8.742188 7.203125 -8.644531 7.203125 -8.53125 L 7.203125 -6.546875 C 7.203125 -6.398438 7.160156 -6.296875 7.078125 -6.234375 C 6.992188 -6.179688 6.878906 -6.175781 6.734375 -6.21875 C 6.398438 -6.300781 6.09375 -6.34375 5.8125 -6.34375 C 4.71875 -6.34375 4.109375 -5.71875 3.984375 -4.46875 L 3.984375 -0.40625 C 3.984375 -0.132812 3.847656 0 3.578125 0 L 1.375 0 C 1.101562 0 0.96875 -0.132812 0.96875 -0.40625 L 0.96875 -9.078125 C 2.175781 -8.816406 3.023438 -8.226562 3.515625 -7.3125 C 3.835938 -7.945312 4.234375 -8.398438 4.703125 -8.671875 C 5.179688 -8.941406 5.6875 -9.078125 6.21875 -9.078125 C 6.332031 -9.078125 6.445312 -9.066406 6.5625 -9.046875 C 6.675781 -9.035156 6.78125 -9.019531 6.875 -9 Z M 6.875 -9 "/></g></g><g style="fill:#000000;fill-opacity:1;"><g transform="translate(80.629083, 19.675126)"><path style="stroke:none" d="M 4.953125 -8.875 L 6.265625 -8.875 C 6.523438 -8.875 6.65625 -8.738281 6.65625 -8.46875 L 6.65625 -6.9375 C 6.65625 -6.675781 6.523438 -6.546875 6.265625 -6.546875 L 4.953125 -6.546875 L 4.953125 -0.40625 C 4.953125 -0.132812 4.816406 0 4.546875 0 L 2.328125 0 C 2.066406 0 1.9375 -0.132812 1.9375 -0.40625 L 1.9375 -6.546875 L 0.640625 -6.546875 C 0.367188 -6.546875 0.234375 -6.675781 0.234375 -6.9375 L 0.234375 -8.46875 C 0.234375 -8.738281 0.367188 -8.875 0.640625 -8.875 L 1.9375 -8.875 C 1.9375 -9.914062 2.191406 -10.757812 2.703125 -11.40625 C 3.222656 -12.0625 3.972656 -12.492188 4.953125 -12.703125 Z M 4.953125 -8.875 "/></g></g></g></svg>